<svg id="Layer_1" data-name="Layer 1" xmlns="http://www.w3.org/2000/svg" viewBox="0 0 485.94 94.13"><path d="M121.42,218.61l-11.75-23.78a18.29,18.29,0,0,0-6.41-7,16.39,16.39,0,0,0-9-3H70.81a5.68,5.68,0,0,0-4.21,1.77,5.79,5.79,0,0,0-1.73,4.18,6,6,0,0,0,1.73,4.28,5.63,5.63,0,0,0,4.21,1.8H76.9v70H70.67a5.63,5.63,0,0,0-4.21,1.8A6,6,0,0,0,64.73,273a5.75,5.75,0,0,0,1.73,4.18,5.68,5.68,0,0,0,4.21,1.77H93.39a17.23,17.23,0,0,0,9.48-2.72,18.1,18.1,0,0,0,6.51-7.26l11.82-23.5a27.93,27.93,0,0,0,.22-26.82Zm-10.79,21.15L98.88,263.11A6.34,6.34,0,0,1,93,267H88.79V196.88h3.89a6.53,6.53,0,0,1,6.23,3.61l12.17,24.21a15.94,15.94,0,0,1,1.77,7.35A19.28,19.28,0,0,1,110.63,239.76Z" transform="translate(-64.73 -184.78)"/><path d="M187.06,192.43,143.37,267h37.75a5.95,5.95,0,0,1,0,11.89H127.05V271l43.56-74.17H132.85a5.42,5.42,0,0,1-4.1-1.8,6,6,0,0,1-1.7-4.28,5.84,5.84,0,0,1,1.7-4.18,5.47,5.47,0,0,1,4.1-1.77h54.21Z" transform="translate(-64.73 -184.78)"/><path d="M218.5,261.9V272a6,6,0,0,1-1.74,4.28,5.62,5.62,0,0,1-4.21,1.8H200.38a5.67,5.67,0,0,1-4.21-1.77,5.74,5.74,0,0,1-1.73-4.17V261.9a5.68,5.68,0,0,1,1.76-4.22,6,6,0,0,1,4.32-1.73h12a5.79,5.79,0,0,1,4.18,1.73A5.69,5.69,0,0,1,218.5,261.9Z" transform="translate(-64.73 -184.78)"/><path d="M272.91,266.36a5.46,5.46,0,0,1,0,7.91,5.65,5.65,0,0,1-4,1.62H248.08a16.17,16.17,0,0,1-8.22-2.52,15.24,15.24,0,0,1-5.91-5.65l-12.86-24.87a25,25,0,0,1-2.59-11A22.56,22.56,0,0,1,221,221l13-24.61a17.24,17.24,0,0,1,5.77-6.06,13.64,13.64,0,0,1,7.56-2.63h22a5.35,5.35,0,0,1,3.94,1.66,5.43,5.43,0,0,1,1.62,3.92,5.58,5.58,0,0,1-1.62,4,5.25,5.25,0,0,1-3.94,1.69H248.1c-1.77,0-3.22,1.05-4.32,3.13L231.42,225.2a13.4,13.4,0,0,0-1.45,6.44,14.35,14.35,0,0,0,1.59,6.91l11.79,22.69a5.61,5.61,0,0,0,5.44,3.5H268.9A5.62,5.62,0,0,1,272.91,266.36Z" transform="translate(-64.73 -184.78)"/><path d="M326.06,267.11a5.19,5.19,0,0,1,0,7.38,5,5,0,0,1-3.68,1.56H306.4a9.94,9.94,0,0,1-7.39-3.18,10.16,10.16,0,0,1-3.08-7.29V245.52a5.49,5.49,0,0,0-1.62-3.89,5,5,0,0,0-3.74-1.72H280.1a5.09,5.09,0,0,1-3.7-1.5,5.29,5.29,0,0,1,0-7.44,5,5,0,0,1,3.7-1.53h10.47a5.06,5.06,0,0,0,3.74-1.68,5.48,5.48,0,0,0,1.62-3.93V203.71a10.74,10.74,0,0,1,10.47-10.35h15.94a5.22,5.22,0,0,1,5.24,5.24,5.19,5.19,0,0,1-5.24,5.23H306.4v20.38a13.73,13.73,0,0,1-4.24,10.47q4.23,3.85,4.24,10.46v20.44h15.94A5,5,0,0,1,326.06,267.11Z" transform="translate(-64.73 -184.78)"/><path d="M380.29,234.49a5.24,5.24,0,0,1-1.52,3.79,5,5,0,0,1-3.71,1.56H364.59a5,5,0,0,0-3.8,1.66,5.39,5.39,0,0,0-1.56,3.83v20.18a10.81,10.81,0,0,1-10.46,10.35h-16a5.24,5.24,0,1,1,0-10.47h16V245a13.93,13.93,0,0,1,4.17-10.46c-2.78-2.54-4.17-6-4.17-10.29V203.64h-16a5.24,5.24,0,0,1,0-10.47h16a10,10,0,0,1,7.35,3.18,10.15,10.15,0,0,1,3.11,7.29v20.12a5.32,5.32,0,0,0,1.59,3.83,5,5,0,0,0,3.77,1.66h10.47a5.19,5.19,0,0,1,5.23,5.24Z" transform="translate(-64.73 -184.78)"/><path d="M430.6,219.51l-11-22.28a17.07,17.07,0,0,0-6-6.56,15.41,15.41,0,0,0-8.39-2.8h-22a5.34,5.34,0,0,0-3.95,1.66,5.44,5.44,0,0,0-1.63,3.92,5.59,5.59,0,0,0,1.63,4,5.26,5.26,0,0,0,3.95,1.69h5.71v65.6h-5.84a5.26,5.26,0,0,0-3.95,1.69,5.61,5.61,0,0,0-1.63,4,5.44,5.44,0,0,0,1.63,3.92,5.34,5.34,0,0,0,3.95,1.66h21.29a16.24,16.24,0,0,0,8.89-2.55,17.06,17.06,0,0,0,6.1-6.81l11.07-22a26.14,26.14,0,0,0,.2-25.14Zm-10.1,19.83-11,21.88a5.94,5.94,0,0,1-5.56,3.65H400V199.15h3.65a6.1,6.1,0,0,1,5.83,3.38l11.41,22.69a14.9,14.9,0,0,1,1.66,6.89A18.09,18.09,0,0,1,420.5,239.34Z" transform="translate(-64.73 -184.78)"/><path d="M490.6,266.5a5.51,5.51,0,0,1,0,7.91,5.64,5.64,0,0,1-4,1.62H436V187.87h50.54a5.79,5.79,0,0,1,5.7,5.71,5.28,5.28,0,0,1-1.69,3.91,5.52,5.52,0,0,1-4,1.66h-39.4v27.13h17a5.67,5.67,0,0,1,5.58,5.58,5.58,5.58,0,0,1-1.62,4,5.35,5.35,0,0,1-4,1.65h-17v27.33h39.53A5.44,5.44,0,0,1,490.6,266.5Z" transform="translate(-64.73 -184.78)"/><path d="M547.68,255.27a13.18,13.18,0,0,1,3,8.22,12.3,12.3,0,0,1-3.61,8.76A11,11,0,0,1,539,276H509a15.37,15.37,0,0,1-14.8-14.53q0-6.22,5.84-6.23a5.19,5.19,0,0,1,3.85,1.62,5.29,5.29,0,0,1,1.6,3.81,4,4,0,0,0,1.22,3,4.24,4.24,0,0,0,3.09,1.19h27.72c1.19,0,1.79-.47,1.79-1.42a2.74,2.74,0,0,0-.81-1.74L497.09,208.9a13.17,13.17,0,0,1-2.94-8.22,12.51,12.51,0,0,1,3.72-9,12.12,12.12,0,0,1,9-3.82h29q5.31,0,10.06,4.48a14.39,14.39,0,0,1,4.75,10.85,5.5,5.5,0,0,1-1.69,4.05,5.27,5.27,0,0,1-3.75,1.65c-1.9,0-3.2-.43-3.92-1.29a14.14,14.14,0,0,1-2-4.81q-1-3.51-4.28-3.51H507.42c-1.33,0-2,.42-2,1.28a2.85,2.85,0,0,0,.8,1.88Z" transform="translate(-64.73 -184.78)"/></svg>